<mxfile host="65bd71144e">
    <diagram id="WbkRMK6g66Q1N7lcUmeP" name="Страница 1">
        <mxGraphModel dx="1123" dy="666" grid="1" gridSize="10" guides="1" tooltips="1" connect="1" arrows="1" fold="1" page="1" pageScale="1" pageWidth="827" pageHeight="1169" math="0" shadow="0">
            <root>
                <mxCell id="0"/>
                <mxCell id="1" parent="0"/>
                <mxCell id="9" value="" style="rounded=0;whiteSpace=wrap;html=1;" vertex="1" parent="1">
                    <mxGeometry x="10" y="565" width="804" height="265" as="geometry"/>
                </mxCell>
                <mxCell id="10" value="Схема&amp;nbsp; 2" style="text;html=1;strokeColor=none;fillColor=none;align=center;verticalAlign=middle;whiteSpace=wrap;rounded=0;fontStyle=1" vertex="1" parent="1">
                    <mxGeometry x="380" y="565" width="60" height="30" as="geometry"/>
                </mxCell>
                <mxCell id="11" value="" style="shape=flexArrow;endArrow=classic;html=1;fillColor=#ffe6cc;strokeColor=#d79b00;" edge="1" parent="1">
                    <mxGeometry width="50" height="50" relative="1" as="geometry">
                        <mxPoint x="409.54999999999995" y="510" as="sourcePoint"/>
                        <mxPoint x="409.54999999999995" y="550" as="targetPoint"/>
                    </mxGeometry>
                </mxCell>
                <mxCell id="6" value="" style="rounded=0;whiteSpace=wrap;html=1;" vertex="1" parent="1">
                    <mxGeometry x="10" y="305" width="804" height="190" as="geometry"/>
                </mxCell>
                <mxCell id="2" value="" style="rounded=0;whiteSpace=wrap;html=1;" vertex="1" parent="1">
                    <mxGeometry x="20" y="40" width="780" height="190" as="geometry"/>
                </mxCell>
                <mxCell id="YHBQQxCtcrKd9iM9PLtc-21" style="edgeStyle=orthogonalEdgeStyle;rounded=0;orthogonalLoop=1;jettySize=auto;html=1;" parent="1" source="YHBQQxCtcrKd9iM9PLtc-18" target="YHBQQxCtcrKd9iM9PLtc-20" edge="1">
                    <mxGeometry relative="1" as="geometry"/>
                </mxCell>
                <mxCell id="YHBQQxCtcrKd9iM9PLtc-18" value="Gateway" style="rounded=0;whiteSpace=wrap;html=1;" parent="1" vertex="1">
                    <mxGeometry x="226" y="115" width="80" height="40" as="geometry"/>
                </mxCell>
                <mxCell id="YHBQQxCtcrKd9iM9PLtc-19" value="" style="endArrow=classic;html=1;rounded=0;entryX=0;entryY=0.5;entryDx=0;entryDy=0;" parent="1" target="YHBQQxCtcrKd9iM9PLtc-18" edge="1">
                    <mxGeometry width="50" height="50" relative="1" as="geometry">
                        <mxPoint x="146" y="135" as="sourcePoint"/>
                        <mxPoint x="206" y="135" as="targetPoint"/>
                    </mxGeometry>
                </mxCell>
                <mxCell id="YHBQQxCtcrKd9iM9PLtc-23" style="edgeStyle=orthogonalEdgeStyle;rounded=0;orthogonalLoop=1;jettySize=auto;html=1;entryX=0;entryY=0.5;entryDx=0;entryDy=0;" parent="1" source="YHBQQxCtcrKd9iM9PLtc-20" target="YHBQQxCtcrKd9iM9PLtc-22" edge="1">
                    <mxGeometry relative="1" as="geometry"/>
                </mxCell>
                <mxCell id="YHBQQxCtcrKd9iM9PLtc-20" value="Preparer" style="rounded=0;whiteSpace=wrap;html=1;" parent="1" vertex="1">
                    <mxGeometry x="366" y="115" width="100" height="40" as="geometry"/>
                </mxCell>
                <mxCell id="YHBQQxCtcrKd9iM9PLtc-25" style="edgeStyle=orthogonalEdgeStyle;rounded=0;orthogonalLoop=1;jettySize=auto;html=1;entryX=0;entryY=0.5;entryDx=0;entryDy=0;entryPerimeter=0;" parent="1" source="YHBQQxCtcrKd9iM9PLtc-22" target="YHBQQxCtcrKd9iM9PLtc-24" edge="1">
                    <mxGeometry relative="1" as="geometry"/>
                </mxCell>
                <mxCell id="YHBQQxCtcrKd9iM9PLtc-22" value="Storage" style="rounded=0;whiteSpace=wrap;html=1;" parent="1" vertex="1">
                    <mxGeometry x="520" y="115" width="100" height="40" as="geometry"/>
                </mxCell>
                <mxCell id="YHBQQxCtcrKd9iM9PLtc-24" value="PG" style="shape=cylinder3;whiteSpace=wrap;html=1;boundedLbl=1;backgroundOutline=1;size=15;fillColor=#d5e8d4;strokeColor=#82b366;" parent="1" vertex="1">
                    <mxGeometry x="676" y="95" width="60" height="80" as="geometry"/>
                </mxCell>
                <mxCell id="YHBQQxCtcrKd9iM9PLtc-32" style="edgeStyle=orthogonalEdgeStyle;rounded=0;orthogonalLoop=1;jettySize=auto;html=1;" parent="1" source="YHBQQxCtcrKd9iM9PLtc-33" target="YHBQQxCtcrKd9iM9PLtc-36" edge="1">
                    <mxGeometry relative="1" as="geometry"/>
                </mxCell>
                <mxCell id="YHBQQxCtcrKd9iM9PLtc-33" value="Gateway" style="rounded=0;whiteSpace=wrap;html=1;" parent="1" vertex="1">
                    <mxGeometry x="126" y="380" width="80" height="40" as="geometry"/>
                </mxCell>
                <mxCell id="YHBQQxCtcrKd9iM9PLtc-34" value="" style="endArrow=classic;html=1;rounded=0;entryX=0;entryY=0.5;entryDx=0;entryDy=0;" parent="1" target="YHBQQxCtcrKd9iM9PLtc-33" edge="1">
                    <mxGeometry width="50" height="50" relative="1" as="geometry">
                        <mxPoint x="80" y="400" as="sourcePoint"/>
                        <mxPoint x="106" y="400" as="targetPoint"/>
                    </mxGeometry>
                </mxCell>
                <mxCell id="YHBQQxCtcrKd9iM9PLtc-42" style="edgeStyle=orthogonalEdgeStyle;rounded=0;orthogonalLoop=1;jettySize=auto;html=1;entryX=0;entryY=0.5;entryDx=0;entryDy=0;" parent="1" source="YHBQQxCtcrKd9iM9PLtc-36" target="YHBQQxCtcrKd9iM9PLtc-41" edge="1">
                    <mxGeometry relative="1" as="geometry"/>
                </mxCell>
                <mxCell id="YHBQQxCtcrKd9iM9PLtc-36" value="Preparer" style="rounded=0;whiteSpace=wrap;html=1;" parent="1" vertex="1">
                    <mxGeometry x="266" y="380" width="100" height="40" as="geometry"/>
                </mxCell>
                <mxCell id="YHBQQxCtcrKd9iM9PLtc-37" style="edgeStyle=orthogonalEdgeStyle;rounded=0;orthogonalLoop=1;jettySize=auto;html=1;entryX=0;entryY=0.5;entryDx=0;entryDy=0;entryPerimeter=0;" parent="1" source="YHBQQxCtcrKd9iM9PLtc-38" target="YHBQQxCtcrKd9iM9PLtc-39" edge="1">
                    <mxGeometry relative="1" as="geometry"/>
                </mxCell>
                <mxCell id="YHBQQxCtcrKd9iM9PLtc-38" value="Storage" style="rounded=0;whiteSpace=wrap;html=1;" parent="1" vertex="1">
                    <mxGeometry x="576" y="380" width="100" height="40" as="geometry"/>
                </mxCell>
                <mxCell id="YHBQQxCtcrKd9iM9PLtc-39" value="PG" style="shape=cylinder3;whiteSpace=wrap;html=1;boundedLbl=1;backgroundOutline=1;size=15;" parent="1" vertex="1">
                    <mxGeometry x="732" y="360" width="60" height="80" as="geometry"/>
                </mxCell>
                <mxCell id="YHBQQxCtcrKd9iM9PLtc-43" style="edgeStyle=orthogonalEdgeStyle;rounded=0;orthogonalLoop=1;jettySize=auto;html=1;entryX=0;entryY=0.5;entryDx=0;entryDy=0;" parent="1" source="YHBQQxCtcrKd9iM9PLtc-41" target="YHBQQxCtcrKd9iM9PLtc-38" edge="1">
                    <mxGeometry relative="1" as="geometry"/>
                </mxCell>
                <mxCell id="YHBQQxCtcrKd9iM9PLtc-41" value="Kafka" style="shape=process;whiteSpace=wrap;html=1;backgroundOutline=1;fillColor=#d5e8d4;strokeColor=#82b366;" parent="1" vertex="1">
                    <mxGeometry x="417" y="380" width="106" height="40" as="geometry"/>
                </mxCell>
                <mxCell id="YHBQQxCtcrKd9iM9PLtc-44" style="edgeStyle=orthogonalEdgeStyle;rounded=0;orthogonalLoop=1;jettySize=auto;html=1;" parent="1" source="YHBQQxCtcrKd9iM9PLtc-45" target="YHBQQxCtcrKd9iM9PLtc-48" edge="1">
                    <mxGeometry relative="1" as="geometry"/>
                </mxCell>
                <mxCell id="YHBQQxCtcrKd9iM9PLtc-45" value="Gateway" style="rounded=0;whiteSpace=wrap;html=1;" parent="1" vertex="1">
                    <mxGeometry x="134" y="650" width="80" height="40" as="geometry"/>
                </mxCell>
                <mxCell id="YHBQQxCtcrKd9iM9PLtc-46" value="" style="endArrow=classic;html=1;rounded=0;entryX=0;entryY=0.5;entryDx=0;entryDy=0;" parent="1" target="YHBQQxCtcrKd9iM9PLtc-45" edge="1">
                    <mxGeometry width="50" height="50" relative="1" as="geometry">
                        <mxPoint x="88" y="670" as="sourcePoint"/>
                        <mxPoint x="114" y="670" as="targetPoint"/>
                    </mxGeometry>
                </mxCell>
                <mxCell id="YHBQQxCtcrKd9iM9PLtc-47" style="edgeStyle=orthogonalEdgeStyle;rounded=0;orthogonalLoop=1;jettySize=auto;html=1;entryX=0;entryY=0.5;entryDx=0;entryDy=0;" parent="1" source="YHBQQxCtcrKd9iM9PLtc-48" target="YHBQQxCtcrKd9iM9PLtc-53" edge="1">
                    <mxGeometry relative="1" as="geometry"/>
                </mxCell>
                <mxCell id="YHBQQxCtcrKd9iM9PLtc-48" value="Preparer" style="rounded=0;whiteSpace=wrap;html=1;" parent="1" vertex="1">
                    <mxGeometry x="274" y="650" width="100" height="40" as="geometry"/>
                </mxCell>
                <mxCell id="YHBQQxCtcrKd9iM9PLtc-49" style="edgeStyle=orthogonalEdgeStyle;rounded=0;orthogonalLoop=1;jettySize=auto;html=1;entryX=0;entryY=0.5;entryDx=0;entryDy=0;entryPerimeter=0;" parent="1" source="YHBQQxCtcrKd9iM9PLtc-50" target="YHBQQxCtcrKd9iM9PLtc-51" edge="1">
                    <mxGeometry relative="1" as="geometry"/>
                </mxCell>
                <mxCell id="YHBQQxCtcrKd9iM9PLtc-50" value="Storage" style="rounded=0;whiteSpace=wrap;html=1;" parent="1" vertex="1">
                    <mxGeometry x="584" y="650" width="100" height="40" as="geometry"/>
                </mxCell>
                <mxCell id="YHBQQxCtcrKd9iM9PLtc-51" value="PG" style="shape=cylinder3;whiteSpace=wrap;html=1;boundedLbl=1;backgroundOutline=1;size=15;" parent="1" vertex="1">
                    <mxGeometry x="740" y="630" width="60" height="80" as="geometry"/>
                </mxCell>
                <mxCell id="YHBQQxCtcrKd9iM9PLtc-52" style="edgeStyle=orthogonalEdgeStyle;rounded=0;orthogonalLoop=1;jettySize=auto;html=1;entryX=0;entryY=0.5;entryDx=0;entryDy=0;" parent="1" source="YHBQQxCtcrKd9iM9PLtc-53" target="YHBQQxCtcrKd9iM9PLtc-50" edge="1">
                    <mxGeometry relative="1" as="geometry"/>
                </mxCell>
                <mxCell id="YHBQQxCtcrKd9iM9PLtc-53" value="Kafka" style="shape=process;whiteSpace=wrap;html=1;backgroundOutline=1;" parent="1" vertex="1">
                    <mxGeometry x="425" y="650" width="106" height="40" as="geometry"/>
                </mxCell>
                <mxCell id="YHBQQxCtcrKd9iM9PLtc-60" style="edgeStyle=orthogonalEdgeStyle;rounded=0;orthogonalLoop=1;jettySize=auto;html=1;entryX=0;entryY=0.5;entryDx=0;entryDy=0;" parent="1" source="YHBQQxCtcrKd9iM9PLtc-54" target="YHBQQxCtcrKd9iM9PLtc-57" edge="1">
                    <mxGeometry relative="1" as="geometry"/>
                </mxCell>
                <mxCell id="YHBQQxCtcrKd9iM9PLtc-54" value="Clickhouse" style="shape=cylinder3;whiteSpace=wrap;html=1;boundedLbl=1;backgroundOutline=1;size=15;fillColor=#d5e8d4;strokeColor=#82b366;" parent="1" vertex="1">
                    <mxGeometry x="289" y="720" width="70" height="80" as="geometry"/>
                </mxCell>
                <mxCell id="YHBQQxCtcrKd9iM9PLtc-55" style="edgeStyle=orthogonalEdgeStyle;rounded=0;orthogonalLoop=1;jettySize=auto;html=1;entryX=0;entryY=0.5;entryDx=0;entryDy=0;entryPerimeter=0;exitX=0.5;exitY=1;exitDx=0;exitDy=0;" parent="1" source="YHBQQxCtcrKd9iM9PLtc-45" target="YHBQQxCtcrKd9iM9PLtc-54" edge="1">
                    <mxGeometry relative="1" as="geometry">
                        <mxPoint x="384" y="750" as="sourcePoint"/>
                    </mxGeometry>
                </mxCell>
                <mxCell id="YHBQQxCtcrKd9iM9PLtc-57" value="Grafana" style="rounded=0;whiteSpace=wrap;html=1;fillColor=#d5e8d4;strokeColor=#82b366;" parent="1" vertex="1">
                    <mxGeometry x="434" y="740" width="80" height="40" as="geometry"/>
                </mxCell>
                <mxCell id="YHBQQxCtcrKd9iM9PLtc-61" value="Actor" style="shape=umlActor;verticalLabelPosition=bottom;verticalAlign=top;html=1;outlineConnect=0;" parent="1" vertex="1">
                    <mxGeometry x="46" y="630" width="30" height="60" as="geometry"/>
                </mxCell>
                <mxCell id="3" value="Схема&amp;nbsp; 1" style="text;html=1;strokeColor=none;fillColor=none;align=center;verticalAlign=middle;whiteSpace=wrap;rounded=0;fontStyle=1" vertex="1" parent="1">
                    <mxGeometry x="380" y="40" width="60" height="30" as="geometry"/>
                </mxCell>
                <mxCell id="4" value="Actor" style="shape=umlActor;verticalLabelPosition=bottom;verticalAlign=top;html=1;outlineConnect=0;" vertex="1" parent="1">
                    <mxGeometry x="110" y="100" width="30" height="60" as="geometry"/>
                </mxCell>
                <mxCell id="5" value="" style="shape=flexArrow;endArrow=classic;html=1;fillColor=#ffe6cc;strokeColor=#d79b00;" edge="1" parent="1">
                    <mxGeometry width="50" height="50" relative="1" as="geometry">
                        <mxPoint x="409.55" y="250" as="sourcePoint"/>
                        <mxPoint x="409.55" y="290" as="targetPoint"/>
                    </mxGeometry>
                </mxCell>
                <mxCell id="7" value="Actor" style="shape=umlActor;verticalLabelPosition=bottom;verticalAlign=top;html=1;outlineConnect=0;" vertex="1" parent="1">
                    <mxGeometry x="46" y="370" width="30" height="60" as="geometry"/>
                </mxCell>
                <mxCell id="8" value="Схема&amp;nbsp; 2" style="text;html=1;strokeColor=none;fillColor=none;align=center;verticalAlign=middle;whiteSpace=wrap;rounded=0;fontStyle=1" vertex="1" parent="1">
                    <mxGeometry x="380" y="305" width="60" height="30" as="geometry"/>
                </mxCell>
            </root>
        </mxGraphModel>
    </diagram>
</mxfile>